PathFileType	4	(X/Y/Z)	C:/Users/beibeiliu/ov580/test_trc/User3\sequence.22_training_dense_left.trc
DataRate	CameraRate	NumFrames	NumMarkers	Units	OrigDataRate	OrigDataStartFrame	OrigNumFrames
120	120	16	19	mm	120	1	106
Frame#	Time	ThumbCMC			ThumbMCP			ThumbIP			ThumbTip			IndexMCP			IndexPIP			IndexTip			MiddleMCP			MiddlePIP			MiddleTip			RingMCP			RingPIP			RingTip			PinkyMCP			PinkyPIP			PinkyTip			BackHand1			BackHand2			BackHand3	
		X0	Y0	Z0	X1	Y1	Z1	X2	Y2	Z2	X3	Y3	Z3	X4	Y4	Z4	X5	Y5	Z5	X6	Y6	Z6	X7	Y7	Z7	X8	Y8	Z8	X9	Y9	Z9	X10	Y10	Z10	X11	Y11	Z11	X12	Y12	Z12	X13	Y13	Z13	X14	Y14	Z14	X15	Y15	Z15	X16	Y16	Z16	X17	Y17	Z17	X18	Y18	Z18	
0	0	-58.067	11.8056	73.2268	-41.5526	3.38698	48.3528	-25.6961	-1.67338	21.9898	-21.9189	-10.3567	-4.09507	-80.933	31.3778	-0.913273	-72.5276	28.615	-28.1878	-65.7084	15.4667	-57.0514	-105.801	28.9007	-6.73824	-106.257	23.194	-37.5235	-102.516	1.39968	-64.4492	-121.648	17.8483	-1.8784	-124.836	12.7479	-25.6333	-124.145	-4.87005	-49.5397	-141.382	1.56986	13.1951	-144.643	-5.29284	-6.21851	-141.069	-17.8646	-29.6538	-123.122	25.8438	51.0071	-123.528	21.7885	85.881	-92.2978	32.9916	66.3501	
1	0.00833333	-59.9941	9.63387	69.6048	-42.1479	1.49364	44.9599	-33.9897	-6.19301	19.053	-28.2171	-16.0825	-6.35756	-82.0442	30.252	-3.35804	-74.8808	26.325	-33.3647	-68.8165	12.6992	-58.4714	-105.561	27.9247	-10.1212	-105.459	22.7652	-36.0914	-102.662	-0.802465	-64.7963	-126.19	15.8194	-0.339499	-123.785	10.7834	-26.5358	-122.699	-9.65478	-53.9527	-138.861	1.06651	16.6099	-145.036	-7.7469	-11.509	-144.628	-19.0138	-29.6113	-125.013	22.7294	54.0407	-123.036	22.6873	82.6963	-91.5187	31.7205	63.6514	
2	0.0166667	-60.1037	9.09899	70.8168	-44.1801	0.388415	46.7079	-32.2934	-7.94604	14.4841	-31.9913	-17.5724	-3.19558	-77.2772	31.5631	-7.0123	-75.5475	27.0709	-31.3151	-65.8512	16.5794	-55.1719	-107.775	28.0103	-6.94629	-105.432	22.1706	-37.2407	-99.4049	1.63761	-64.1171	-121.18	17.3099	1.14912	-123.547	8.3659	-30.6004	-123.027	-10.1144	-52.6937	-140.687	2.02071	15.1443	-145.165	-7.18359	-9.53816	-141.778	-19.8453	-28.8456	-125.994	23.619	53.431	-122.106	21.5237	82.0018	-92.968	31.1989	66.24	
3	0.025	-57.2659	11.2043	65.8509	-45.2003	0.536452	43.1877	-34.5166	-8.29651	15.9318	-32.0826	-18.5631	-3.03824	-80.2777	31.7062	-6.5442	-71.6859	28.4835	-34.5984	-71.7314	17.1243	-54.4327	-105.244	28.8896	-5.99604	-105.225	21.4284	-39.3473	-101.027	0.189502	-64.1906	-120.902	18.2028	-1.76503	-124.132	9.1763	-29.6976	-121.12	-5.84698	-49.536	-135.816	2.95268	15.8894	-141.421	-3.45047	-10.1145	-142.692	-17.4859	-30.5603	-124.26	23.8398	50.1453	-126.051	21.238	80.908	-92.0134	33.0652	63.2205	
4	0.0333333	-61.5814	9.71853	69.7563	-44.3968	0.186788	41.3433	-32.257	-9.39973	16.8758	-31.6903	-20.253	-5.81141	-77.9408	33.7873	-2.83875	-73.9614	30.6168	-29.8683	-67.4061	19.1182	-54.3152	-103.446	30.8919	-11.7585	-101.494	20.1325	-41.1893	-97.5416	0.755893	-62.9189	-124.711	16.0955	-0.946665	-122.061	8.91947	-31.4102	-119.985	-11.688	-51.5163	-140.824	1.71053	13.3577	-139.743	-2.49761	-8.95341	-141.673	-17.2015	-31.1195	-125.531	25.5188	51.052	-121.191	23.9401	79.4454	-92.7425	32.3903	63.3145	
5	0.0416667	-61.6369	10.1713	66.383	-45.8923	-0.00999177	42.7741	-36.3515	-9.39055	13.9373	-33.3332	-21.0311	-6.75807	-78.0115	33.9588	-0.821381	-77.4067	27.0903	-33.0311	-68.7952	14.9875	-52.8234	-107.223	28.3313	-9.76335	-102.52	20.4262	-38.2436	-99.0187	-5.05819	-60.1657	-125.199	16.1019	-0.370177	-124.01	6.34437	-30.0959	-119.973	-13.284	-47.1923	-139.042	3.68587	14.4019	-140.311	-1.76905	-6.88351	-139.994	-18.9953	-28.6628	-122.405	25.4608	55.2527	-123.572	21.6132	82.2784	-89.9841	32.9966	65.6466	
6	0.05	-59.8367	10.6174	67.0961	-44.4191	-0.348382	41.6473	-38.1174	-10.8985	18.1602	-37.2462	-20.176	-5.15545	-83.4839	32.5951	-5.29863	-75.6823	27.1115	-29.5776	-71.3779	6.64131	-50.1358	-108.452	27.7767	-9.79881	-102.224	19.8316	-36.0317	-94.5116	-11.6973	-57.2654	-120.883	17.8123	2.17028	-122.462	6.79429	-27.4776	-112.019	-19.4876	-45.8126	-141.204	2.50217	14.6101	-141.11	-5.08201	-12.0276	-136.902	-20.9387	-29.6959	-121.373	23.0273	55.7244	-125.515	20.0054	84.4495	-94.2303	33.0259	67.9837	
7	0.0583333	-60.6515	11.1475	71.7596	-46.0568	0.700973	44.097	-36.6152	-6.77802	12.7972	-36.6866	-17.3415	-8.1532	-83.7253	34.0923	-4.28012	-75.3252	20.9582	-33.3427	-71.1191	-3.5512	-43.3167	-106.696	29.651	-9.7095	-101.853	17.1934	-36.2954	-86.472	-20.7995	-44.6291	-120.997	19.4643	0.551588	-123.091	3.39563	-27.2405	-110.651	-23.9174	-34.5134	-141.2	5.4262	11.9102	-139.976	-2.11856	-10.0016	-130.005	-24.3706	-29.1891	-127.176	22.586	55.6819	-126.12	20.7061	82.2994	-92.3461	35.6593	67.2461	
8	0.0666667	-62.5166	11.8235	68.619	-49.5048	3.70237	40.6128	-43.064	-2.68512	13.8567	-44.4231	-11.3683	-12.2599	-84.7508	33.9347	-2.57278	-76.4412	14.2437	-31.777	-63.2444	-15.0152	-25.3488	-106.192	30.1432	-7.12525	-100.978	7.94565	-35.2368	-85.881	-24.0769	-22.8312	-122.93	18.9592	-2.06295	-119.99	-0.457996	-25.7687	-100.82	-28.4263	-18.0811	-140.971	5.32823	15.436	-138.761	-1.10161	-10.5454	-126.928	-25.1117	-26.0616	-125.54	23.8994	53.5202	-127.307	19.3762	84.7199	-94.5471	33.419	67.8487	
9	0.075	-65.9658	11.7822	69.6914	-47.656	7.38918	39.4121	-40.3071	3.51107	12.8554	-47.123	-5.02851	-10.3598	-84.2728	32.7546	-4.71712	-77.7656	11.6514	-27.1	-65.654	-15.7502	-9.00214	-104.018	27.5197	-10.7804	-93.3276	2.88415	-30.1559	-83.5992	-21.4136	-1.5495	-119.46	18.0599	-4.73584	-117.426	-6.40493	-22.809	-99.2133	-28.0322	-1.9171	-136.754	7.14323	14.8176	-136.705	-2.64973	-14.116	-122.423	-23.1236	-24.6394	-129.817	23.1074	53.8778	-128.822	19.5174	80.5439	-95.4007	33.7918	68.8668	
10	0.0833333	-65.4068	13.9066	66.9254	-51.445	11.4826	39.0247	-45.1245	10.2392	9.29567	-48.6658	5.04968	-16.4675	-86.6893	29.9586	-5.49838	-72.8573	7.07542	-21.191	-67.2141	-11.9575	8.09824	-103.659	22.2789	-12.1923	-90.4912	-3.26726	-22.0393	-87.3676	-17.6621	14.0264	-123.789	11.5558	-3.76536	-112.075	-12.5571	-17.4789	-95.973	-25.7842	12.3528	-137.274	7.91376	12.6477	-136.121	0.680224	-15.86	-122.699	-18.9707	-28.4766	-131.086	22.3576	54.0282	-128.799	16.336	79.0999	-99.2501	33.1622	68.3837	
11	0.0916667	-68.1334	11.8539	67.9027	-49.3037	15.4675	38.4731	-45.3622	17.0388	8.29049	-53.5783	12.5304	-15.0323	-83.89	31.7548	-5.56176	-70.0728	4.70094	-15.1223	-67.9216	-7.05258	13.1922	-102.311	22.9742	-8.33035	-88.7544	-7.24031	-14.9404	-87.0129	-10.7484	26.153	-120.92	12.5414	-1.93102	-105.554	-12.1704	-12.8922	-97.2127	-23.8452	18.2209	-135.964	12.7537	6.19453	-135.061	6.06812	-14.5246	-125.637	-13.652	-35.5842	-131.936	25.8207	52.5854	-130.987	15.3597	81.0206	-96.0732	33.5457	66.6594	
12	0.1	-67.8724	15.766	63.1449	-53.9578	15.8454	36.2867	-45.348	18.372	5.69055	-50.8781	16.6643	-18.8568	-80.4204	33.6842	-6.85297	-66.7559	6.72061	-13.9332	-67.0435	-3.61045	15.4582	-97.482	24.311	-9.54146	-86.1128	-6.67477	-10.7483	-86.9928	-9.1171	26.2663	-119.568	13.7731	-4.06796	-100.828	-12.7358	-8.82109	-95.8043	-19.1864	23.0124	-138.173	14.1181	7.99794	-135.489	10.132	-15.0975	-126.061	-3.31717	-40.1035	-125.726	29.4459	50.0859	-126.377	17.1134	81.9719	-95.8499	33.4775	68.1381	
13	0.108333	-63.3414	13.4239	64.8615	-48.4991	18.1152	33.4924	-45.4667	21.4445	3.0816	-50.6929	19.0455	-21.0386	-81.9249	35.5088	-4.6072	-68.683	7.83452	-16.6775	-68.4368	-1.98035	18.7117	-96.4044	24.2715	-11.5805	-83.5871	-5.51992	-10.302	-84.1884	-6.97027	26.8917	-114.276	16.0892	-5.85427	-103.336	-10.0278	-9.70508	-95.0687	-17.5813	22.3108	-132.86	21.3617	4.08104	-132.877	14.4065	-20.3243	-126.331	6.41573	-40.8414	-123.92	31.8386	49.475	-124.543	22.2316	79.6226	-93.2628	36.2815	70.1214	
14	0.116667	-60.6465	14.269	63.9682	-47.9627	17.108	36.0783	-44.0143	21.8136	4.75075	-50.2549	22.173	-18.7216	-80.3195	33.4021	-8.13997	-70.3578	5.17831	-16.6364	-68.6285	-3.22449	16.4612	-94.8127	25.8773	-8.9663	-83.5691	-5.37455	-11.409	-87.3462	-5.08798	30.5768	-113.366	17.5126	-5.19342	-103.426	-11.4895	-8.68238	-95.4329	-17.4191	21.0416	-135.845	22.9256	3.85754	-135.152	20.7206	-15.2533	-131.169	14.7817	-43.6174	-125.682	32.3679	52.3696	-120.964	21.7534	77.9394	-91.8466	36.3872	66.5438	
15	0.125	-60.7601	10.3359	61.502	-50.8094	14.7938	31.801	-47.533	21.3	-0.377768	-49.4137	18.3267	-20.1685	-78.6855	29.3792	-9.21147	-68.1086	-0.352059	-17.9769	-71.4565	-8.35622	17.5726	-98.9651	20.9438	-10.383	-84.4604	-12.3913	-10.6201	-86.0989	-10.8355	27.1573	-116.266	14.2826	-5.15616	-105.105	-13.9805	-10.3427	-99.0112	-21.081	21.9083	-137.144	19.8499	4.99488	-134.303	19.12	-15.5291	-132.815	17.4126	-40.8683	-122.122	30.839	48.1553	-120.205	20.7794	77.9629	-88.8366	36.6272	62.6056	
